<?xml version="1.0" encoding="UTF-8"?>
<svg width="100" height="100" viewBox="0 0 100 100" fill="none" xmlns="http://www.w3.org/2000/svg">
  <rect width="100" height="100" fill="#f8f9fa"/>
  <path d="M50 20C42 20 35 27 35 35C35 43 42 50 50 50C58 50 65 43 65 35C65 27 58 20 50 20Z" stroke="#6c757d" stroke-width="2" fill="none"/>
  <path d="M50 25C45 25 40 30 40 35C40 40 45 45 50 45C55 45 60 40 60 35C60 30 55 25 50 25Z" stroke="#6c757d" stroke-width="1.5" fill="none"/>
  <path d="M50 30C48 30 45 32 45 35C45 38 48 40 50 40C52 40 55 38 55 35C55 32 52 30 50 30Z" stroke="#6c757d" stroke-width="1" fill="none"/>
  <path d="M30 50C30 65 42 80 50 80C58 80 70 65 70 50" stroke="#6c757d" stroke-width="2" fill="none"/>
  <path d="M35 55C35 65 42 75 50 75C58 75 65 65 65 55" stroke="#6c757d" stroke-width="1.5" fill="none"/>
  <path d="M40 60C40 65 45 70 50 70C55 70 60 65 60 60" stroke="#6c757d" stroke-width="1" fill="none"/>
  <text x="50" y="90" text-anchor="middle" font-family="Arial, sans-serif" font-size="8" fill="#6c757d">Huella</text>
</svg>
